<?xml version="1.0" standalone="no"?><!DOCTYPE svg PUBLIC "-//W3C//DTD SVG 1.1//EN" "http://www.w3.org/Graphics/SVG/1.1/DTD/svg11.dtd"><svg t="1742616005119" class="icon" viewBox="0 0 1024 1024" version="1.1" xmlns="http://www.w3.org/2000/svg" p-id="2703" data-spm-anchor-id="a313x.search_index.0.i24.48493a81yoTGJY" xmlns:xlink="http://www.w3.org/1999/xlink" width="200" height="200"><path d="M512 512m-512 0a512 512 0 1 0 1024 0 512 512 0 1 0-1024 0Z" fill="#3d84a8" p-id="2704" data-spm-anchor-id="a313x.search_index.0.i20.48493a81yoTGJY" class=""></path><path d="M645.38624 607.40608a226.28352 226.28352 0 0 0 52.43904-145.1008c0-126.2592-103.24992-228.43392-230.4-228.43392s-230.4 102.17472-230.4 228.43392 103.24992 228.43392 230.4 228.43392c42.11712 0 81.6128-11.2128 115.6096-30.79168 1.3824 2.01728 2.97984 3.9424 4.78208 5.7344l121.64096 121.6512a40.96 40.96 0 1 0 57.92768-57.93792L645.7344 607.75424a41.80992 41.80992 0 0 0-0.34816-0.34816z" fill="#48466d" p-id="2705" data-spm-anchor-id="a313x.search_index.0.i17.48493a81yoTGJY" class="selected"></path><path d="M467.42528 608.8192c82.09408 0 148.48-65.6896 148.48-146.51392s-66.38592-146.51392-148.48-146.51392-148.48 65.6896-148.48 146.51392 66.38592 146.51392 148.48 146.51392z" fill="#eeeeee" p-id="2706" data-spm-anchor-id="a313x.search_index.0.i16.48493a81yoTGJY" class=""></path></svg>